<svg xmlns="http://www.w3.org/2000/svg" xmlns:xlink="http://www.w3.org/1999/xlink" width="112" height="42" viewBox="0 0 112 42"><defs><style>.a,.b{fill:#fff;}.b{clip-rule:evenodd;}.c{isolation:isolate;}.d{clip-path:url(#a);}.e{clip-path:url(#b);}.f{clip-path:url(#c);}.g{clip-path:url(#d);}.h{clip-path:url(#f);}.i{clip-path:url(#h);}.j{clip-path:url(#j);}.k{clip-path:url(#l);}.l{clip-path:url(#n);}</style><clipPath id="a"><rect class="a" width="112" height="42"/></clipPath><clipPath id="b"><path class="b" d="M129.518-48.24h.306c.267,0,.433-.138.451-.337.02-.221-.123-.337-.39-.337h-.306Zm.939.443.485,1.063h-.764l-.37-.894h-.343l-.081.894h-.7l.254-2.828h1.048c.634,0,1.048.4,1,.926a1.034,1.034,0,0,1-.526.84Zm1.819-.351A2.254,2.254,0,0,0,130-50.671a2.8,2.8,0,0,0-2.725,2.522,2.261,2.261,0,0,0,2.273,2.522,2.8,2.8,0,0,0,2.725-2.522Zm.267,0a3.087,3.087,0,0,1-3.014,2.767,2.487,2.487,0,0,1-2.518-2.767,3.088,3.088,0,0,1,3.014-2.767,2.487,2.487,0,0,1,2.517,2.767Z" transform="translate(-127 50.916)"/></clipPath><clipPath id="c"><path class="a" d="M0-8.73H111.062V-51H0Z" transform="translate(0 51)"/></clipPath><clipPath id="d"><path class="b" d="M14.927-27.019l.041-.121c.361-2.129-.6-3.775-2.893-3.775A4.26,4.26,0,0,0,7.816-27.14c-.362,2.13.642,3.777,2.933,3.777a4.168,4.168,0,0,0,4.177-3.656Zm9.24-10.165L20.632-17.1H13.2l.322-1.767A7.755,7.755,0,0,1,7.9-16.534C2.353-16.534-.338-21.6.425-27.22,1.188-32.684,5-37.745,10.869-37.745c2.572,0,4.42.964,5.464,2.811l.4-2.25Z" transform="translate(-0.298 37.745)"/></clipPath><clipPath id="f"><path class="b" d="M29.755-31.905,32.52-48.217h7.432L37.147-31.784,34.9-18.89H27.465Z" transform="translate(-27.465 48.217)"/></clipPath><clipPath id="h"><path class="b" d="M49.508-38.867,48.262-31.8,44.168-8.572H36.735L40.83-31.8l1.245-7.071c1.045-5.9,5.1-9.078,12.052-8.677l-1.164,6.669c-1.968-.161-3.214.723-3.455,2.008" transform="translate(-36.735 47.578)"/></clipPath><clipPath id="j"><path class="b" d="M62.3-29.994a13.733,13.733,0,0,1,5.358-6.968l-11.819-.09a2.2,2.2,0,0,0-2.179,1.815l-.923,5.242-2.29,13.016H57.88l2-11.4a1.961,1.961,0,0,1,1.931-1.62Z" transform="translate(-50.448 37.051)"/></clipPath><clipPath id="l"><path class="b" d="M80.242-29.389A2.349,2.349,0,0,0,77.55-31.8a4.243,4.243,0,0,0-3.936,2.411Zm6.509,2.169a12.234,12.234,0,0,1-.764,2.612H72.89c.522,1.647,2.089,2.007,3.575,2.007a5.138,5.138,0,0,0,3.7-1.285l4.3,4.339a12.607,12.607,0,0,1-8.677,3.014c-7.473,0-10.848-5.063-9.843-11.008a12.016,12.016,0,0,1,11.892-10.2c6.347,0,9.923,4.86,8.919,10.525Z" transform="translate(-65.766 37.745)"/></clipPath><clipPath id="n"><path class="b" d="M107.555-28.442l.081-.4c.281-2.049-.685-3.615-2.933-3.615a4.26,4.26,0,0,0-4.258,3.776c-.362,2.129.642,3.777,2.932,3.777a4.192,4.192,0,0,0,4.178-3.536ZM118.2-46.761,113.26-18.64h-7.432l.322-1.767a7.757,7.757,0,0,1-5.624,2.331c-5.544,0-8.236-5.063-7.472-10.687.763-5.464,4.579-10.525,10.444-10.525,2.571,0,4.42.964,5.464,2.812l1.808-10.285Z" transform="translate(-92.925 46.761)"/></clipPath></defs><g transform="translate(-4878 576)"><g class="c" transform="translate(4878 -576)"><g class="d" transform="translate(0)"><g class="e" transform="translate(106.09 0.07)"><g class="f" transform="translate(-105.261 -0.07)"><path class="a" d="M122-55.916h13.842v13.821H122Z" transform="translate(-20.884 51.841)"/></g></g><g class="g" transform="translate(1.075 10.986)"><g class="f" transform="translate(-0.247 -10.986)"><path class="a" d="M-4.7-42.745H27.455v29.5H-4.7Z" transform="translate(0.805 49.587)"/></g></g><g class="h" transform="translate(23.592 2.306)"><g class="f" transform="translate(-22.763 -2.306)"><path class="a" d="M22.465-53.217H43.241V-15.6H22.465Z" transform="translate(-3.845 51.38)"/></g></g><g class="i" transform="translate(31.276 2.837)"><g class="f" transform="translate(-30.447 -2.837)"><path class="a" d="M31.736-52.578H57.415V-5.284H31.736Z" transform="translate(-5.432 51.27)"/></g></g><g class="j" transform="translate(42.641 11.561)"><g class="f" transform="translate(-41.812 -11.561)"><path class="a" d="M45.448-42.051h25.5V-13.69h-25.5Z" transform="translate(-7.78 49.468)"/></g></g><g class="k" transform="translate(55.338 10.986)"><g class="f" transform="translate(-54.509 -10.986)"><path class="a" d="M60.766-42.745h29.44v29.5H60.766Z" transform="translate(-10.402 49.587)"/></g></g><g class="l" transform="translate(77.847 3.513)"><g class="f" transform="translate(-77.019 -3.513)"><path class="a" d="M87.925-51.761h33.564v36.973H87.925Z" transform="translate(-15.051 51.13)"/></g></g></g></g></g></svg>